<mxfile host="app.diagrams.net" modified="2023-08-05T15:33:24.154Z" agent="Mozilla/5.0 (Macintosh; Intel Mac OS X 10.15; rv:109.0) Gecko/20100101 Firefox/117.0" version="21.6.6" etag="K7rj2X_g-KpmTvamQ5c_" type="github">
  <diagram name="Page-1" id="o9qbXAedsLmOMpETrdGP">
    <mxGraphModel>
      <root>
        <mxCell id="0" />
        <mxCell id="1" parent="0" />
      </root>
    </mxGraphModel>
  </diagram>
</mxfile>
